Patient4_TMGait_0pt6_01_left_28_GRF.mot
version=1
nRows=65
nColumns=19
inDegrees=no
endheader
time	F1x	F1y	F1z	M1x	M1y	M1z	F2x	F2y	F2z	M2x	M2y	M2z	EC1x	EC1y	EC1z	EC2x	EC2y	EC2z
34.02	12.1653	11.1226	-2.0008	-2.3003	0.12167	11.9713	-33.254	714.7832	-57.1787	280.0641	65.4402	706.4077	-0.0592	0.0182	-0.0073	-0.0462	0.0165	0.9585
34.0326	8.1525	8.1955	-1.1505	-1.8881	-0.12554	8.7873	-28.7984	714.4053	-53.0094	280.5461	60.9577	704.963	-0.0592	0.0182	-0.0073	-0.0462	0.0165	0.9585
34.0451	4.7355	5.7746	-0.51164	-1.5377	-0.26504	6.1753	-24.2182	716.086	-48.8491	282.0422	56.2305	704.3286	-0.0592	0.0182	-0.0073	-0.0462	0.0165	0.9585
34.0577	2.1143	3.9876	-0.080241	-1.2753	-0.32574	4.2806	-19.7558	720.7548	-44.9778	284.8811	51.5459	705.417	-0.0592	0.0182	-0.0073	-0.0462	0.0165	0.9585
34.0703	0.30265	2.8015	0.16931	-1.0989	-0.32559	3.0446	-15.5647	728.771	-41.6788	289.1379	47.2172	708.7446	-0.0592	0.0182	-0.0073	-0.0462	0.0165	0.9585
34.0829	-0.83999	2.1174	0.28742	-0.99337	-0.30028	2.3625	-11.7243	739.7283	-39.1641	294.5753	43.4919	714.1312	-0.0592	0.0182	-0.0073	-0.0462	0.0165	0.9585
34.0954	-1.4549	1.7863	0.31203	-0.93402	-0.25958	2.0514	-8.2552	752.5585	-37.5895	300.6952	40.5544	720.7804	-0.0592	0.0182	-0.0073	-0.0462	0.0165	0.9585
34.108	-1.7339	1.665	0.2892	-0.89472	-0.23378	1.957	-5.135	765.7928	-36.9596	306.855	38.4405	727.5113	-0.0592	0.0182	-0.0073	-0.0462	0.0165	0.9585
34.1206	-1.8197	1.5977	0.24121	-0.84288	-0.22958	1.8962	-2.3419	777.8496	-37.1984	312.3845	37.1127	733.0351	-0.0592	0.0182	-0.0073	-0.0462	0.0165	0.9585
34.1331	-1.8338	1.4474	0.19793	-0.74343	-0.26578	1.7227	0.13663	787.2776	-38.1227	316.686	36.4392	736.1764	-0.0592	0.0182	-0.0073	-0.0462	0.0165	0.9585
34.1457	-1.8377	1.0812	0.1692	-0.55998	-0.33913	1.2952	2.2975	792.9564	-39.5328	319.3099	36.2716	736.0532	-0.0592	0.0182	-0.0073	-0.0462	0.0165	0.9585
34.1583	-1.863	0.37774	0.17079	-0.25841	-0.44973	0.48092	4.1368	794.2659	-41.1891	320.0154	36.4175	732.2295	-0.0592	0.0182	-0.0073	-0.0462	0.0165	0.9585
34.1709	-1.9072	-0.73326	0.19652	0.18292	-0.5762	-0.78747	5.6666	791.1018	-42.9	318.7731	36.7208	724.7109	-0.0592	0.0182	-0.0073	-0.0462	0.0165	0.9585
34.1834	-1.9142	-2.2756	0.24619	0.77097	-0.69214	-2.5423	6.9076	783.8506	-44.5173	315.7511	37.0543	713.9142	-0.0592	0.0182	-0.0073	-0.0462	0.0165	0.9585
34.196	-1.8074	-4.1642	0.29812	1.4759	-0.74442	-4.6791	7.9067	773.3466	-45.9639	311.2956	37.3463	700.6172	-0.0592	0.0182	-0.0073	-0.0462	0.0165	0.9585
34.2086	-1.4418	-6.1707	0.34146	2.2157	-0.67029	-6.9589	8.7492	760.7409	-47.2255	305.8791	37.5569	685.8421	-0.0592	0.0182	-0.0073	-0.0462	0.0165	0.9585
34.2211	-0.66052	-7.8265	0.33316	2.8205	-0.37142	-8.8627	9.5733	747.3307	-48.3431	300.0309	37.6712	670.7108	-0.0592	0.0182	-0.0073	-0.0462	0.0165	0.9585
34.2337	0.72873	-8.3859	0.2414	3.0129	0.25278	-9.5823	10.5575	734.3962	-49.3847	294.2744	37.6834	656.2997	-0.0592	0.0182	-0.0073	-0.0462	0.0165	0.9585
34.2463	2.8878	-6.733	0.015998	2.3756	1.3169	-7.8714	11.8892	723.094	-50.4124	289.0798	37.5766	643.5604	-0.0592	0.0182	-0.0073	-0.0462	0.0165	0.9585
34.2589	5.9394	-1.3923	-0.37979	0.35204	2.9081	-2.0881	13.7213	714.313	-51.4501	284.8103	37.3129	633.1963	-0.0592	0.0182	-0.0073	-0.0462	0.0165	0.9585
34.2714	9.8499	9.4104	-0.99073	-3.7269	5.0531	9.7544	16.1118	708.5195	-52.4751	281.6597	36.8471	625.5613	-0.0592	0.0182	-0.0073	-0.0462	0.0165	0.9585
34.284	14.3317	27.5299	-1.8296	-10.5621	7.6449	29.7503	19.0446	705.5699	-53.4143	279.5858	36.1223	620.4906	-0.0592	0.0182	-0.0073	-0.0462	0.0165	0.9585
34.2966	18.7038	54.4966	-2.8787	-20.7288	10.3896	59.6588	22.4387	704.6302	-54.1448	278.2793	35.0663	617.2446	-0.0592	0.0182	-0.0073	-0.0462	0.0165	0.9585
34.3091	21.7113	90.8469	-4.0348	-34.4236	12.6864	100.1707	26.1947	704.2061	-54.4885	277.18	33.5728	614.5159	-0.0592	0.0182	-0.0073	-0.0462	0.0165	0.9585
34.3217	21.5456	135.2692	-5.0727	-51.1441	13.5992	149.9379	30.1519	702.3413	-54.2388	275.5515	31.5365	610.6135	-0.0592	0.0182	-0.0073	-0.0462	0.0165	0.9585
34.3343	16.7012	184.2752	-5.6465	-69.5565	12.1932	205.2234	34.0954	696.8969	-53.1753	272.5897	28.8629	603.6988	-0.0592	0.0182	-0.0073	-0.0462	0.0165	0.9585
34.3469	7.6791	232.6043	-5.2721	-87.6368	8.1302	260.2022	37.7652	685.8944	-51.1455	267.5494	25.5345	592.109	-0.0592	0.0182	-0.0073	-0.0462	0.0165	0.9585
34.3594	-2.8992	274.1563	-3.2516	-103.0445	1.665	307.8974	40.8955	667.7951	-48.1487	259.8511	21.6658	574.5649	-0.0592	0.0182	-0.0073	-0.0462	0.0165	0.9585
34.372	-12.8513	304.9619	0.30442	-114.2834	-6.2026	343.5945	43.2628	641.7718	-44.3329	249.1816	17.472	550.3942	-0.0592	0.0182	-0.0073	-0.0462	0.0165	0.9585
34.3846	-21.1782	325.2581	4.7054	-121.4605	-14.3276	367.3604	44.7322	607.891	-39.9892	235.5595	13.2431	519.6981	-0.0592	0.0182	-0.0073	-0.0462	0.0165	0.9585
34.3971	-27.7153	338.2717	9.338	-125.825	-21.9434	382.7904	45.2637	566.9734	-35.4633	219.2927	9.2734	483.2132	-0.0592	0.0182	-0.0073	-0.0462	0.0165	0.9585
34.4097	-32.7315	348.3235	13.5972	-129.0493	-28.4931	394.6396	44.8272	520.3947	-30.993	200.9043	5.7609	442.1543	-0.0592	0.0182	-0.0073	-0.0462	0.0165	0.9585
34.4223	-36.685	359.4058	17.2513	-132.6696	-33.8825	407.2686	43.4185	469.812	-26.6689	181.0347	2.7827	397.9762	-0.0592	0.0182	-0.0073	-0.0462	0.0165	0.9585
34.4349	-39.8195	374.6782	20.1405	-137.8999	-38.0606	423.9933	41.0687	416.974	-22.491	160.3647	0.33426	352.2089	-0.0592	0.0182	-0.0073	-0.0462	0.0165	0.9585
34.4474	-42.2766	396.4913	22.4533	-145.6145	-41.2944	447.2859	37.8767	363.5906	-18.4582	139.5602	-1.6159	306.3098	-0.0592	0.0182	-0.0073	-0.0462	0.0165	0.9585
34.46	-44.1159	426.0318	24.446	-156.2345	-43.9122	478.3129	33.9808	311.2879	-14.5971	119.2486	-3.1013	261.6396	-0.0592	0.0182	-0.0073	-0.0462	0.0165	0.9585
34.4726	-45.4847	462.9394	26.727	-169.579	-46.6112	516.6423	29.5647	261.5088	-10.9792	99.983	-4.1417	219.3728	-0.0592	0.0182	-0.0073	-0.0462	0.0165	0.9585
34.4851	-46.4989	505.5762	29.679	-185.0015	-49.8518	560.4715	24.8561	215.4169	-7.6853	82.2047	-4.7715	180.4236	-0.0592	0.0182	-0.0073	-0.0462	0.0165	0.9585
34.4977	-47.2754	551.7689	33.5559	-201.669	-53.937	607.459	20.0795	173.8272	-4.811	66.2146	-5.0142	145.4148	-0.0592	0.0182	-0.0073	-0.0462	0.0165	0.9585
34.5103	-47.8811	599.3699	38.1345	-218.7868	-58.6604	655.3023	15.4563	137.184	-2.4347	52.1689	-4.9071	114.6577	-0.0592	0.0182	-0.0073	-0.0462	0.0165	0.9585
34.5229	-48.2568	646.4102	43.1451	-235.6417	-63.7087	701.9237	11.1556	105.5942	-0.61452	40.095	-4.4859	88.2049	-0.0592	0.0182	-0.0073	-0.0462	0.0165	0.9585
34.5354	-48.3224	691.0478	48.1421	-251.5774	-68.5887	745.4077	7.3348	78.8965	0.63618	29.9177	-3.8124	65.8933	-0.0592	0.0182	-0.0073	-0.0462	0.0165	0.9585
34.548	-47.9811	731.4405	52.8997	-265.9319	-73.0219	783.8751	4.0859	56.7573	1.3534	21.4981	-2.9629	47.4322	-0.0592	0.0182	-0.0073	-0.0462	0.0165	0.9585
34.5606	-47.1854	765.895	57.1668	-278.0967	-76.7371	815.6573	1.4843	38.7923	1.6245	14.6793	-2.0437	32.4946	-0.0592	0.0182	-0.0073	-0.0462	0.0165	0.9585
34.5731	-45.9083	793.1084	60.9192	-287.6014	-79.6989	839.5137	-0.39582	24.6546	1.5615	9.3219	-1.1711	20.7821	-0.0592	0.0182	-0.0073	-0.0462	0.0165	0.9585
34.5857	-44.1721	812.3945	64.0524	-294.2068	-81.8181	854.8516	-1.518	14.055	1.2923	5.3109	-0.45995	12.037	-0.0592	0.0182	-0.0073	-0.0462	0.0165	0.9585
34.5983	-41.9885	823.6787	66.5475	-297.8989	-83.0923	861.7215	-1.966	6.6866	0.9381	2.5265	0.031428	5.9744	-0.0592	0.0182	-0.0073	-0.0462	0.0165	0.9585
34.6109	-39.3971	827.4075	68.2868	-298.8542	-83.4324	860.7061	-1.9939	2.091	0.60257	0.79263	0.32089	2.2067	-0.0592	0.0182	-0.0073	-0.0462	0.0165	0.9585
34.6234	-36.4653	824.4319	69.2699	-297.3892	-82.868	852.7958	-1.7771	-0.38974	0.31363	-0.1375	0.46676	0.1721	-0.0592	0.0182	-0.0073	-0.0462	0.0165	0.9585
34.636	-33.2812	815.972	69.5051	-293.9536	-81.4429	839.337	-1.471	-1.3807	0.096609	-0.5024	0.50901	-0.62749	-0.0592	0.0182	-0.0073	-0.0462	0.0165	0.9585
34.6486	-29.9568	803.4935	69.1327	-289.083	-79.3411	821.9047	-1.1445	-1.452	-0.061329	-0.5155	0.49448	-0.67894	-0.0592	0.0182	-0.0073	-0.0462	0.0165	0.9585
34.6611	-26.6286	788.5379	68.2786	-283.342	-76.7452	802.0947	-0.86675	-1.0148	-0.16312	-0.33354	0.45631	-0.31391	-0.0592	0.0182	-0.0073	-0.0462	0.0165	0.9585
34.6737	-23.4349	772.627	67.083	-277.2881	-73.8511	781.4551	-0.64476	-0.36976	-0.23318	-0.06933	0.42635	0.20723	-0.0592	0.0182	-0.0073	-0.0462	0.0165	0.9585
34.6863	-20.4642	757.1733	65.6132	-271.4443	-70.767	761.3839	-0.48405	0.30446	-0.28038	0.2081	0.41355	0.73908	-0.0592	0.0182	-0.0073	-0.0462	0.0165	0.9585
34.6989	-17.7761	743.3913	63.9303	-266.2587	-67.584	743.0542	-0.37079	0.90869	-0.31877	0.45884	0.42404	1.2018	-0.0592	0.0182	-0.0073	-0.0462	0.0165	0.9585
34.7114	-15.3874	732.1791	62.0754	-262.0627	-64.3566	727.2954	-0.29159	1.403	-0.34654	0.66587	0.44603	1.5775	-0.0592	0.0182	-0.0073	-0.0462	0.0165	0.9585
34.724	-13.2819	724.06	60.1284	-259.0467	-61.1631	714.5728	-0.25121	1.7878	-0.36659	0.82628	0.47464	1.8862	-0.0592	0.0182	-0.0073	-0.0462	0.0165	0.9585
34.7366	-11.4044	719.1925	58.181	-257.2662	-58.0743	704.9811	-0.2375	2.0646	-0.37486	0.93998	0.4989	2.1246	-0.0592	0.0182	-0.0073	-0.0462	0.0165	0.9585
34.7491	-9.6659	717.4229	56.3315	-256.6611	-55.1501	698.3042	-0.26873	2.2522	-0.37191	1.0111	0.5247	2.316	-0.0592	0.0182	-0.0073	-0.0462	0.0165	0.9585
34.7617	-7.9356	718.3632	54.6584	-257.0854	-52.4169	694.089	-0.328	2.329	-0.3601	1.0333	0.55169	2.4134	-0.0592	0.0182	-0.0073	-0.0462	0.0165	0.9585
34.7743	-6.0716	721.4752	53.2143	-258.3373	-49.8687	691.7632	-0.4381	2.274	-0.34656	0.99719	0.59274	2.3878	-0.0592	0.0182	-0.0073	-0.0462	0.0165	0.9585
34.7869	-3.9482	726.1369	52.0396	-260.1815	-47.4906	690.6918	-0.5828	2.0116	-0.33969	0.87622	0.64968	2.1374	-0.0592	0.0182	-0.0073	-0.0462	0.0165	0.9585
34.7994	-1.4552	731.7195	51.1576	-262.3752	-45.2617	690.2678	-0.772	1.4734	-0.34386	0.64086	0.72706	1.5957	-0.0592	0.0182	-0.0073	-0.0462	0.0165	0.9585
34.812	1.4867	737.6393	50.597	-264.6893	-43.1763	689.9561	-0.97824	0.56433	-0.35716	0.25251	0.81404	0.65236	-0.0592	0.0182	-0.0073	-0.0462	0.0165	0.9585
34.8246	4.8982	743.3969	50.3718	-266.9208	-41.2295	689.3367	-1.1745	-0.78169	-0.37148	-0.31856	0.89203	-0.76888	-0.0592	0.0182	-0.0073	-0.0462	0.0165	0.9585
